<?xml version="1.0" encoding="UTF-8"?>
<svg width="96px" height="96px" viewBox="0 0 96 96" version="1.1" xmlns="http://www.w3.org/2000/svg" xmlns:xlink="http://www.w3.org/1999/xlink">
    <title>Allrounder</title>
    <defs>
        <polygon id="path-1" points="0.243333384 0.000107346306 61.0161534 0.000107346306 61.0161534 94.2499444 0.243333384 94.2499444"></polygon>
    </defs>
    <g id="Allrounder" stroke="none" stroke-width="1" fill="none" fill-rule="evenodd">
        <g id="Group-18" transform="translate(12.000000, 1.000000)">
            <path d="M19.3687661,21.2742412 L19.3687661,19.069441 L20.9430662,18.440241 C20.9430662,18.440241 21.2583162,20.9596412 19.3687661,21.2742412 M18.109066,15.2903408 L19.9986161,14.3458908 C20.3132161,14.6604908 20.9430662,17.495141 20.9430662,17.495141 C20.9430662,17.495141 19.3687661,18.440241 19.3687661,18.124991 C19.3687661,17.809741 18.109066,15.2903408 18.109066,15.2903408 M21.7308662,17.652441 C21.7308662,17.652441 21.4156162,14.1885908 20.7857661,13.2434907 L17.636516,14.5031908 L16.0615659,13.2434907 L18.266366,10.7240906 L17.321916,10.0942406 L14.9598158,12.7709407 C14.9598158,12.7709407 6.14126534,10.5661406 5.5114153,19.6992911 C5.5114153,19.6992911 5.82601532,25.9984414 13.0702657,26.6276415 C13.0702657,26.6276415 17.636516,26.7855915 18.895566,22.0613912 C18.895566,22.0613912 22.3607162,21.7467912 21.7308662,17.652441" id="Fill-1" fill="#020303"></path>
            <g id="Group-5" transform="translate(10.400001, 0.000000)">
                <mask id="mask-2" fill="white">
                    <use xlink:href="#path-1"></use>
                </mask>
                <g id="Clip-4"></g>
                <path d="M31.0141667,20.6445861 C31.0141667,20.6445861 27.8642665,20.3299861 25.3448664,21.5890362 C25.3448664,21.5890362 16.8415659,25.9979864 14.0075658,25.3687864 C14.0075658,25.3687864 8.02366544,22.8493863 4.87441527,30.7221867 C4.87441527,30.7221867 4.24456523,34.8165369 6.13411534,36.706087 C6.13411534,36.706087 18.731766,51.8231379 19.9914661,54.657138 L19.6768661,55.287638 C19.6768661,55.287638 16.2123659,59.3819883 11.8027656,60.9562884 C11.8027656,60.9562884 5.18966529,65.9957386 3.92931522,71.6637389 L0.465465026,82.0565895 C0.465465026,82.0565895 -1.42408508,88.3557399 5.81886532,88.6703399 C5.81886532,88.6703399 8.33826546,88.9855899 10.2278156,83.0023396 C10.2278156,83.0023396 12.7472157,73.238689 14.9520158,71.0338889 C14.9520158,71.0338889 18.416516,66.6249387 20.9359162,66.3103386 C20.9359162,66.3103386 18.416516,74.1831391 20.3060661,80.7975394 C20.3060661,81.1121395 23.4553163,91.18974 23.4553163,91.18974 C23.4553163,91.18974 26.9198165,96.8590403 31.9586168,92.7646901 C31.9586168,92.7646901 33.5335668,90.56054 31.6440167,86.4661898 L29.1246166,77.3330393 C29.1246166,77.3330393 28.1801666,70.7192889 30.6995667,63.7909385 L32.2732168,57.4917882 C32.2732168,57.4917882 35.738367,53.3980879 32.5891168,48.3592877 C32.5891168,48.3592877 26.9198165,39.5400872 24.7156664,37.3359371 L25.3448664,36.706087 C25.3448664,36.706087 40.4619172,30.0923367 37.6279171,24.7389364 L39.5174672,22.8493863 L41.0924173,24.4230363 L60.9330184,5.84278532 C60.9330184,5.84278532 61.5628684,2.69288515 59.3580683,0.803985044 C59.3580683,0.803985044 57.4685182,-0.770965042 54.949118,0.488085027 L35.4231169,19.069636 L36.998067,20.6445861 L35.738367,21.9036362 C35.738367,21.9036362 32.9037168,20.6445861 30.3843167,22.5341362 C30.3843167,22.5341362 22.1962662,29.1478866 18.416516,29.7777366 L17.786666,28.5173866 C17.786666,28.5173866 29.7544666,22.5341362 31.0141667,20.6445861" id="Fill-3" fill="#020303" mask="url(#mask-2)"></path>
            </g>
            <path d="M66.2938286,19.6994211 C66.2938286,19.6994211 70.7027789,37.020622 48.3427777,44.5794725 L48.6573777,46.4696726 C48.6573777,46.4696726 70.7027789,39.2254222 66.2938286,19.6994211" id="Fill-6" fill="#020303"></path>
            <path d="M6.74518037,52.9256029 L2.07363011,52.9256029 C1.62383009,52.9256029 1.25983007,52.5609529 1.25983007,52.1118029 L1.25983007,51.8492029 C1.25983007,51.3994028 1.62383009,51.0360528 2.07363011,51.0360528 L6.74518037,51.0360528 C7.1943304,51.0360528 7.55833042,51.3994028 7.55833042,51.8492029 L7.55833042,52.1118029 C7.55833042,52.5609529 7.1943304,52.9256029 6.74518037,52.9256029" id="Fill-8" fill="#020303"></path>
            <path d="M13.6736608,52.9256029 L9.0021105,52.9256029 C8.55231047,52.9256029 8.18896045,52.5609529 8.18896045,52.1118029 L8.18896045,51.8492029 C8.18896045,51.3994028 8.55231047,51.0360528 9.0021105,51.0360528 L13.6736608,51.0360528 C14.1228108,51.0360528 14.4868108,51.3994028 14.4868108,51.8492029 L14.4868108,52.1118029 C14.4868108,52.5609529 14.1228108,52.9256029 13.6736608,52.9256029" id="Fill-10" fill="#020303"></path>
            <path d="M3.14925017,54.499838 C3.14925017,54.499838 2.20480012,51.6658378 0,53.869988 L0,86.9380898 C0,86.9380898 1.8902001,89.7733899 3.14925017,86.6234898 L3.14925017,54.499838 Z" id="Fill-12" fill="#020303"></path>
            <path d="M6.29895535,54.184978 L6.29895535,78.7504293 L6.29895535,86.9384798 C6.29895535,86.9384798 7.87325543,88.8280299 8.81835549,87.8835798 C8.81835549,87.8835798 7.55800542,84.7336797 9.44820552,80.3247294 L9.44820552,56.0745281 L9.44820552,54.499578 C9.44820552,54.499578 8.18850545,51.6655778 6.29895535,54.184978" id="Fill-14" fill="#020303"></path>
            <path d="M12.7551457,54.027548 L12.7551457,70.4042989 C12.7551457,70.4042989 14.3294458,65.6807486 16.2189959,64.7356486 L16.2189959,54.342148 C16.2189959,54.342148 14.6446958,51.5081478 12.7551457,54.027548" id="Fill-16" fill="#020303"></path>
        </g>
    </g>
</svg>