<?xml version="1.0" encoding="UTF-8"?>
<svg width="96px" height="96px" viewBox="0 0 96 96" version="1.1" xmlns="http://www.w3.org/2000/svg" xmlns:xlink="http://www.w3.org/1999/xlink">
    <title>Bat-Keeper</title>
    <defs>
        <polygon id="path-1" points="0 0.261067795 6.55613961 0.261067795 6.55613961 79.7999352 0 79.7999352"></polygon>
    </defs>
    <g id="Bat-Keeper" stroke="none" stroke-width="1" fill="none" fill-rule="evenodd">
        <g id="Group-20" transform="translate(18.000000, 6.000000)">
            <g id="Group-3" transform="translate(0.000000, 4.200000)">
                <mask id="mask-2" fill="white">
                    <use xlink:href="#path-1"></use>
                </mask>
                <g id="Clip-2"></g>
                <path d="M6.55613961,2.35613986 C6.55613961,2.35613986 5.73653966,-0.102659994 2.86853983,0.307139982 C2.86853983,0.307139982 -5.99999964e-05,0.717539957 -5.99999964e-05,2.76593984 L-5.99999964e-05,61.7705363 L-5.99999964e-05,79.7999352 L6.14633963,79.7999352 L6.35093962,65.6633361 C6.35093962,65.6633361 -0.205259988,61.5659363 6.35093962,54.5999367 L6.55613961,2.35613986 Z" id="Fill-1" fill="#020303" mask="url(#mask-2)"></path>
            </g>
            <path d="M14.5465791,7.17077957 C14.5465791,7.17077957 14.9563791,3.89237977 18.6439789,4.71197972 C18.6439789,4.71197972 20.6923788,4.71197972 20.6923788,7.17077957 L20.6923788,42.0001775 L14.5465791,49.785177 L14.5465791,7.17077957 Z" id="Fill-4" fill="#020303"></path>
            <path d="M14.5465791,76.8293954 C14.5465791,76.8293954 17.414579,78.8777953 20.6923788,76.4189954 L20.6923788,83.794795 L14.5465791,83.794795 L14.5465791,76.8293954 Z" id="Fill-6" fill="#020303"></path>
            <path d="M28.8879583,6.7612196 C28.8879583,6.7612196 29.7069582,3.89261977 32.985358,4.71221972 C32.985358,4.71221972 35.0337579,5.12201969 35.0337579,7.17101957 L35.4441579,25.6096185 L28.8879583,32.985418 L28.8879583,6.7612196 Z" id="Fill-8" fill="#020303"></path>
            <polygon id="Fill-10" fill="#020303" points="35.4440379 60.0293964 35.4440379 83.794795 28.8878383 83.794795 28.8878383 66.994796"></polygon>
            <path d="M56.7510566,64.3319362 C56.7510566,68.7443359 53.1738568,72.3215357 48.7614571,72.3215357 C44.3478574,72.3215357 40.7706576,68.7443359 40.7706576,64.3319362 C40.7706576,59.9189364 44.3478574,56.3417366 48.7614571,56.3417366 C53.1738568,56.3417366 56.7510566,59.9189364 56.7510566,64.3319362" id="Fill-12" fill="#020303"></path>
            <path d="M6.96569958,0.409679976 L13.5218992,0.409679976 C13.5218992,0.409679976 13.9316992,0.409679976 13.9316992,0.819479951 L13.9316992,2.04827988 L17.209499,2.04827988 L17.209499,4.50707973 L14.3414991,4.50707973 C14.3414991,4.50707973 13.9316992,4.50707973 13.9316992,4.91747971 L13.9316992,6.14687963 C13.9316992,6.14687963 13.9316992,6.55607961 13.5218992,6.55607961 L6.96569958,6.55607961 C6.96569958,6.55607961 6.55589961,6.14687963 6.55589961,5.73647966 L6.55589961,4.91747971 C6.55589961,4.91747971 6.55589961,4.50707973 5.73629966,4.50707973 L3.09329982,4.50167973 C3.09329982,4.50167973 2.86829983,4.50707973 2.86829983,4.09727976 L2.86829983,2.86847983 C2.86829983,2.86847983 2.86829983,2.45867985 3.2780998,2.45867985 L6.14669963,2.45867985 L6.55589961,2.45867985 L6.55589961,2.04827988 L6.96569958,0.409679976" id="Fill-14" fill="#020303"></path>
            <path d="M21.5414987,0.000119999993 L28.4720983,0.000119999993 C28.4720983,0.000119999993 28.9052983,0.000119999993 28.9052983,0.433319974 L28.9052983,1.7329199 L32.3708981,1.7329199 L32.3708981,4.33211974 L29.3384983,4.33211974 C29.3384983,4.33211974 28.9052983,4.33211974 28.9052983,4.76471972 L28.9052983,6.06431964 C28.9052983,6.06431964 28.9052983,6.49751961 28.4720983,6.49751961 L21.5414987,6.49751961 C21.5414987,6.49751961 21.1082987,6.06431964 21.1082987,5.63111966 L21.1082987,4.76471972 C21.1082987,4.76471972 21.1082987,4.33211974 20.2418988,4.33211974 L17.447699,4.32611974 C17.447699,4.32611974 17.209499,4.33211974 17.209499,3.89831977 L17.209499,2.59931985 C17.209499,2.59931985 17.209499,2.16551987 17.6426989,2.16551987 L20.6750988,2.16551987 L21.1082987,2.16551987 L21.1082987,1.7329199 L21.5414987,0.000119999993" id="Fill-16" fill="#020303"></path>
            <path d="M57.1612166,13.7268592 L43.6390174,29.2974583 L40.7710176,26.8392584 C40.7710176,26.8392584 38.7220177,26.0190584 37.0828178,27.2484584 L6.35081962,62.4882563 C6.35081962,62.4882563 4.71221972,64.9464561 6.35081962,66.585656 L15.3658191,74.7804555 C15.3658191,74.7804555 17.8240189,76.4190554 20.2828188,73.5510556 L50.605017,38.7216577 C50.605017,38.7216577 51.4240169,36.2634578 49.3756171,34.214458 L47.3266172,32.5758581 L60.8488164,17.005259 C60.8488164,17.005259 61.2586163,13.3170592 57.1612166,13.7268592" id="Fill-18" fill="#020303"></path>
        </g>
    </g>
</svg>