<?xml version="1.0" encoding="UTF-8"?>
<svg width="96px" height="96px" viewBox="0 0 96 96" version="1.1" xmlns="http://www.w3.org/2000/svg" xmlns:xlink="http://www.w3.org/1999/xlink">
    <title>Bowler</title>
    <defs>
        <polygon id="path-1" points="0.418858097 0.517799969 13.1999992 0.517799969 13.1999992 16.733279 0.418858097 16.733279"></polygon>
        <polygon id="path-3" points="0.567299966 0.589439965 8.11229952 0.589439965 8.11229952 11.3999993 0.567299966 11.3999993"></polygon>
        <polygon id="path-5" points="0 0.428339974 9.12082073 0.428339974 9.12082073 10.3379394 0 10.3379394"></polygon>
    </defs>
    <g id="Bowler" stroke="none" stroke-width="1" fill="none" fill-rule="evenodd">
        <g id="Group-26" transform="translate(23.000000, 4.000000)">
            <g id="Group-3" transform="translate(36.599998, 0.082200)">
                <mask id="mask-2" fill="white">
                    <use xlink:href="#path-1"></use>
                </mask>
                <g id="Clip-2"></g>
                <path d="M10.4971794,11.7784793 C10.4971794,11.7784793 13.2001792,9.07607946 13.2001792,5.47247967 C13.2001792,5.47247967 12.2989793,0.967679942 7.34417956,0.517679969 C7.34417956,0.517679969 2.38937986,0.967679942 1.93937988,5.92247965 C1.93937988,5.92247965 -0.763619954,5.92247965 1.03817994,9.07607946 C1.03817994,9.07607946 0.587579965,16.282679 4.19117975,16.733279 C4.19117975,16.733279 8.69597948,15.8326791 10.4971794,11.7784793" id="Fill-1" fill="#020303" mask="url(#mask-2)"></path>
            </g>
            <path d="M48.8989171,12.7612792 C48.8989171,12.7612792 50.700717,19.9684788 42.1423175,20.4190788 C42.1423175,20.4190788 39.8905176,22.6708786 38.9893177,22.6708786 C38.9893177,22.6708786 34.035118,25.8238785 33.585118,27.6256784 C33.585118,27.6256784 18.7201189,19.9684788 8.81111947,34.381678 L9.71171942,25.3738785 C9.71171942,25.3738785 12.4141193,19.9684788 13.7653192,18.6172789 C13.7653192,18.6172789 14.6665191,14.1130792 18.2701189,13.6624792 C18.2701189,13.6624792 25.0267185,7.80647953 28.6297183,7.35647956 L35.3863179,7.35647956 C35.3863179,7.35647956 34.9363179,16.815479 40.3405176,18.6172789 C40.3405176,18.6172789 45.7459173,18.6172789 48.8989171,12.7612792" id="Fill-4" fill="#020303"></path>
            <path d="M45.9715773,21.9950987 L42.8185774,22.4456987 C42.8185774,22.4456987 41.9173775,23.7968986 40.5661776,24.2474986 C40.5661776,24.2474986 37.4131778,25.5986985 38.3137777,26.9498984 L39.6649776,28.7516983 C39.6649776,28.7516983 42.8185774,29.6528982 43.2685774,25.5986985 L43.7191774,24.6980985 L45.9715773,21.9950987 Z" id="Fill-6" fill="#020303"></path>
            <path d="M33.584878,29.4271182 C33.584878,29.4271182 42.5932775,34.381918 41.6926775,44.2915174 C41.6926775,44.2915174 41.6926775,54.6511167 32.2330781,58.7053165 C32.2330781,58.7053165 34.260478,47.6695172 34.034878,37.9855177 C34.034878,37.9855177 34.034878,30.3283182 33.584878,29.4271182" id="Fill-8" fill="#020303"></path>
            <path d="M28.1795983,27.6259184 L31.3325981,28.0759183 C31.3325981,28.0759183 35.3861979,44.7415173 29.0801983,59.6059164 L26.8283984,60.5071164 C26.8283984,60.5071164 35.3861979,38.8867177 28.1795983,27.6259184" id="Fill-10" fill="#020303"></path>
            <path d="M26.8283984,27.6259184 C26.8283984,27.6259184 31.7831981,36.1837178 29.0801983,48.3451171 C29.0801983,48.3451171 27.2783984,56.0029167 25.0265985,60.5071164 L23.2247986,60.5071164 C23.2247986,60.5071164 32.6837981,42.0391175 24.5759985,27.1753184 L26.8283984,27.6259184 Z" id="Fill-12" fill="#020303"></path>
            <path d="M22.3237187,27.1753184 C22.3237187,27.1753184 8.81111947,30.3283182 8.3611195,43.8409174 C8.3611195,43.8409174 8.3611195,57.3541166 21.4231187,60.0565164 C21.4231187,60.0565164 28.6297183,46.0933173 24.5761185,33.030718 C24.5761185,33.030718 23.2249186,28.5265183 22.3237187,27.1753184" id="Fill-14" fill="#020303"></path>
            <path d="M21.4231187,62.3087363 C21.4231187,62.3087363 29.0803183,62.3087363 33.134518,60.5069364 L22.3237187,76.2713355 L16.918319,74.9207355 C16.918319,74.9207355 19.6213188,70.4165358 19.6213188,69.9659358 L19.6213188,67.714136 L21.4231187,62.3087363 Z" id="Fill-16" fill="#020303"></path>
            <path d="M6.55907961,46.9940972 C6.55907961,46.9940972 8.81087947,53.7506968 11.9638793,57.3542966 L11.0632793,59.6060964 L9.71207942,65.9120961 C9.71207942,65.9120961 8.3608795,62.7590963 3.85607977,62.7590963 L6.55907961,58.7054965 C6.55907961,58.7054965 5.65787966,49.2464971 6.55907961,46.9940972" id="Fill-18" fill="#020303"></path>
            <g id="Group-22" transform="translate(14.999999, 75.682195)">
                <mask id="mask-4" fill="white">
                    <use xlink:href="#path-3"></use>
                </mask>
                <g id="Clip-21"></g>
                <path d="M0.567299966,0.589439965 L7.77449954,2.84183983 L7.77449954,6.44543962 C7.77449954,6.44543962 9.12569946,10.0490394 6.42329962,11.4002393 L2.36909986,11.4002393 C2.36909986,11.4002393 0.567299966,10.9496393 1.01789994,5.99483964 C1.01789994,5.99483964 1.91849989,4.19303975 0.567299966,0.589439965" id="Fill-20" fill="#020303" mask="url(#mask-4)"></path>
            </g>
            <g id="Group-25" transform="translate(0.000000, 63.682196)">
                <mask id="mask-6" fill="white">
                    <use xlink:href="#path-5"></use>
                </mask>
                <g id="Clip-24"></g>
                <path d="M3.4061398,0.428339974 C3.4061398,0.428339974 7.45973956,0.428339974 8.3609395,3.13073981 C8.3609395,3.13073981 9.71213942,3.58133979 8.81093947,4.48193973 C8.81093947,4.48193973 6.55913961,8.98673946 3.4061398,10.3379394 C3.4061398,10.3379394 -1.09865993,9.43673944 0.252539985,4.48193973 C0.252539985,4.48193973 1.6043399,1.77953989 3.4061398,0.428339974" id="Fill-23" fill="#020303" mask="url(#mask-6)"></path>
            </g>
        </g>
    </g>
</svg>