<?xml version="1.0" encoding="UTF-8"?>
<svg width="96px" height="96px" viewBox="0 0 96 96" version="1.1" xmlns="http://www.w3.org/2000/svg" xmlns:xlink="http://www.w3.org/1999/xlink">
    <title>Cricket-Batsman</title>
    <defs>
        <polygon id="path-1" points="0.000299999982 0.226799986 38.5482666 0.226799986 38.5482666 88.7999947 0.000299999982 88.7999947"></polygon>
        <polygon id="path-3" points="0 89.1731947 64.9955961 89.1731947 64.9955961 0.599999964 0 0.599999964"></polygon>
    </defs>
    <g id="Cricket-Batsman" stroke="none" stroke-width="1" fill="none" fill-rule="evenodd">
        <g id="Group-11" transform="translate(16.000000, 4.000000)">
            <path d="M23.4927586,27.6214784 C23.4927586,31.3216781 26.4921584,34.321078 30.1923582,34.321078 C33.892558,34.321078 36.8919578,31.3216781 36.8919578,27.6214784 C36.8919578,23.9212788 33.892558,20.9212788 30.1923582,20.9212788 C26.4921584,20.9212788 23.4927586,23.9212788 23.4927586,27.6214784" id="Fill-1" fill="#020203"></path>
            <g id="Group-5" transform="translate(0.000000, 0.373200)">
                <mask id="mask-2" fill="white">
                    <use xlink:href="#path-1"></use>
                </mask>
                <g id="Clip-4"></g>
                <path d="M9.74489942,37.7764177 L9.57089943,29.0752183 L12.5294993,37.2544178 L9.74489942,37.7764177 Z M38.4578977,85.6312149 L36.5438978,71.1880158 L36.0218979,69.2734159 L29.9312982,56.2222166 L33.759298,43.1704174 C33.759298,43.1704174 34.9778979,38.8204177 30.2792982,36.9064178 L17.576099,32.3818181 L13.7474992,23.3326186 L16.009499,21.2440187 L18.0980989,21.5920187 C18.0980989,21.5920187 18.9680989,21.5920187 19.3160988,21.4180187 L35.6738979,7.67081954 L37.7618977,5.93081965 C37.7618977,5.93081965 38.9804977,4.53881973 38.1098977,3.14621981 L35.6738979,0.536219968 C35.6738979,0.536219968 34.107298,-0.16037999 33.237298,0.536219968 L16.009499,15.1540191 C16.009499,15.1540191 14.6174991,16.024019 14.4434991,17.416019 L14.2694991,18.9826189 L12.1814993,20.7220188 C12.1814993,20.7220188 10.0928994,19.5046188 8.3528995,20.8960188 C8.3528995,20.8960188 6.96029959,22.1140187 7.83089953,24.3766185 C7.83089953,24.3766185 2.95829982,24.0286186 3.48089979,28.2052183 L0.000299999982,30.9892182 L1.7402999,33.077818 L3.3068998,32.0338181 L3.3068998,42.3004175 C3.3068998,42.3004175 4.00229976,45.2590173 6.43829962,45.0850173 L17.576099,44.0404174 L15.1394991,52.9156168 L14.6174991,54.4822168 L8.00489952,69.0994159 L7.48229955,70.3174158 C7.48229955,70.3174158 6.61229961,72.7540157 7.48229955,74.3200156 L13.9214992,86.1532149 C13.9214992,86.1532149 14.9654991,88.0672148 16.532099,87.1972148 L19.1420989,85.6312149 C19.1420989,85.6312149 20.5340988,84.9352149 19.6640988,83.0206151 L15.1394991,72.5800157 L21.9266987,60.5722164 L29.0606983,72.9280157 L31.3232981,83.194615 L32.0192981,86.8492148 C32.0192981,86.8492148 32.7152981,89.1118147 34.4558979,88.7638147 L37.0658978,88.2412147 C37.0658978,88.2412147 38.9804977,87.8932148 38.4578977,85.6312149 L38.4578977,85.6312149 Z" id="Fill-3" fill="#020203" mask="url(#mask-2)"></path>
            </g>
            <mask id="mask-4" fill="white">
                <use xlink:href="#path-3"></use>
            </mask>
            <g id="Clip-7"></g>
            <polygon id="Fill-6" fill="#020203" mask="url(#mask-4)" points="47.6807972 79.7399952 51.3353969 79.7399952 51.3353969 57.1175966 47.6807972 57.1175966"></polygon>
            <polygon id="Fill-8" fill="#020203" mask="url(#mask-4)" points="54.2933968 79.9139952 57.9479965 79.9139952 57.9479965 57.2915966 54.2933968 57.2915966"></polygon>
            <polygon id="Fill-9" fill="#020203" mask="url(#mask-4)" points="60.9929964 79.8269952 64.6475961 79.8269952 64.6475961 57.2045966 60.9929964 57.2045966"></polygon>
            <polygon id="Fill-10" fill="#020203" mask="url(#mask-4)" points="47.4200972 54.0718768 51.4226969 54.0718768 51.4226969 52.8538768 54.0326968 52.8538768 54.0326968 54.0718768 58.2086965 54.0718768 58.2086965 52.8538768 60.6452964 52.8538768 60.6452964 54.0718768 64.9958961 54.0718768 64.9958961 55.9858767 60.8192964 55.9858767 60.9932964 57.2044766 58.0346965 57.2044766 58.2086965 55.8118767 54.2072968 55.8118767 54.3812968 57.2044766 51.4226969 57.0304766 51.4226969 55.9858767 47.4200972 55.8118767"></polygon>
        </g>
    </g>
</svg>