<?xml version="1.0" encoding="UTF-8"?>
<svg width="96px" height="96px" viewBox="0 0 96 96" version="1.1" xmlns="http://www.w3.org/2000/svg" xmlns:xlink="http://www.w3.org/1999/xlink">
    <title>Defender</title>
    <defs>
        <polygon id="path-1" points="7.6188561e-05 0.0238259988 89.2070475 0.0238259988 89.2070475 71.4779964 7.6188561e-05 71.4779964"></polygon>
    </defs>
    <g id="Defender" stroke="none" stroke-width="1" fill="none" fill-rule="evenodd">
        <g id="Group-6" transform="translate(3.000000, 12.000000)">
            <g id="Group-3" transform="translate(0.000000, 0.603174)">
                <mask id="mask-2" fill="white">
                    <use xlink:href="#path-1"></use>
                </mask>
                <g id="Clip-2"></g>
                <path d="M33.2366413,11.6536722 C33.2366413,11.6536722 36.6287112,1.47746273 26.4525017,0.0234497988 C26.4525017,0.0234497988 16.7603362,0.99279175 17.7296781,9.71561531 C17.7296781,9.71561531 18.941042,13.8350051 23.3018268,15.772435 L13.6102883,27.8879554 L3.43407883,27.8879554 C3.43407883,27.8879554 -0.442661978,28.3719994 0.0420089979,32.7334111 C0.0420089979,32.7334111 1.49602192,35.641437 3.43407883,35.641437 L16.5183142,36.610152 L17.9717001,35.641437 L24.7564668,26.9186134 L30.5712645,39.0328798 L23.7871248,54.0557991 C23.7871248,54.0557991 23.3018268,57.9325399 24.7564668,58.9012548 L41.2321449,70.5314772 C41.2321449,70.5314772 44.6242147,72.9548321 46.5628986,70.0468063 L47.5316136,68.1087494 C47.5316136,68.1087494 48.9856265,65.2007235 46.5628986,63.7473376 L33.4786633,53.5711281 L37.8400751,44.8483045 L45.1088857,41.4562347 L85.3296797,47.7557034 C85.3296797,47.7557034 89.2070475,47.2716594 89.2070475,43.3942916 C89.2070475,43.3942916 88.7217495,40.0022218 84.8456357,39.0328798 L46.5628986,32.2493672 L40.262803,20.1338468 L50.9236834,20.6191448 L63.5232478,16.741777 C63.5232478,16.741777 66.4306466,13.8350051 63.5232478,9.9576373 C63.5232478,9.9576373 61.5851909,7.53490942 58.1931211,9.47296632 L48.9856265,12.3803652 L33.2366413,11.6536722 Z" id="Fill-1" fill="#020303" mask="url(#mask-2)"></path>
            </g>
            <path d="M90.6603707,25.8255017 C90.6603707,30.2414625 87.0802009,33.8210053 82.6642401,33.8210053 C78.2482794,33.8210053 74.6687365,30.2414625 74.6687365,25.8255017 C74.6687365,21.4095409 78.2482794,17.8299981 82.6642401,17.8299981 C87.0802009,17.8299981 90.6603707,21.4095409 90.6603707,25.8255017" id="Fill-4" fill="#020303"></path>
        </g>
    </g>
</svg>