<?xml version="1.0" encoding="UTF-8"?>
<svg width="96px" height="96px" viewBox="0 0 96 96" version="1.1" xmlns="http://www.w3.org/2000/svg" xmlns:xlink="http://www.w3.org/1999/xlink">
    <title>Forward</title>
    <defs>
        <polygon id="path-1" points="0.226295976 0.327410966 59.5299537 0.327410966 59.5299537 76.8293152 0.226295976 76.8293152"></polygon>
    </defs>
    <g id="Forward" stroke="none" stroke-width="1" fill="none" fill-rule="evenodd">
        <g id="Group-8" transform="translate(10.000000, 2.000000)">
            <path d="M41.2774697,8.73148408 C41.2774697,13.5541336 37.3683201,17.4632832 32.5463006,17.4632832 C27.7230211,17.4632832 23.8138715,13.5541336 23.8138715,8.73148408 C23.8138715,3.90946459 27.7230211,0.000314999967 32.5463006,0.000314999967 C37.3683201,0.000314999967 41.2774697,3.90946459 41.2774697,8.73148408" id="Fill-1" fill="#020303"></path>
            <g id="Group-5" transform="translate(15.119998, 14.489998)">
                <mask id="mask-2" fill="white">
                    <use xlink:href="#path-1"></use>
                </mask>
                <g id="Clip-4"></g>
                <path d="M28.274523,0.327410966 L9.75252498,4.03181058 C9.75252498,4.03181058 8.16492514,5.61941041 7.6357252,6.14861035 L0.226295976,20.4370089 L0.755495921,40.5466067 C0.755495921,40.5466067 2.8729257,43.7218064 5.51892542,43.1926065 C5.51892542,43.1926065 9.22332503,42.6634065 9.22332503,39.4882069 L9.22332503,22.5538086 L11.3401248,18.3208391 L11.8693248,18.849409 L16.1029243,36.8422071 L13.9854945,51.6598056 L8.69412509,49.5430058 C8.69412509,49.5430058 4.98972548,50.0722057 3.40212564,52.7182055 C3.40212564,52.7182055 2.34372575,56.4226051 3.93069559,57.481635 L15.5737244,62.7730044 C15.5737244,62.7730044 20.8657238,63.8320343 21.9241237,59.0686048 L24.5701234,42.1342066 L30.9205228,42.1342066 L39.9162918,50.6020357 L47.854921,72.8278034 C47.854921,72.8278034 49.9710908,78.1198028 54.7345203,76.532203 C54.7345203,76.532203 58.4389199,74.9446031 56.85069,70.1818036 L48.9133209,46.3678061 L47.854921,44.7808363 L35.6833223,33.6670075 L31.4497227,16.7326092 L32.5081226,17.2618092 L37.2709221,22.0246087 L53.6754904,28.375638 C53.6754904,28.375638 58.9681198,28.375638 59.4973198,24.1420385 C59.4973198,24.1420385 60.0258897,20.9668388 56.85069,19.9078089 L42.0337216,14.6164395 L28.274523,0.327410966 Z" id="Fill-3" fill="#020303" mask="url(#mask-2)"></path>
            </g>
            <path d="M17.4635982,83.8780652 C17.4635982,88.7007147 13.5544486,92.6098643 8.73179908,92.6098643 C3.90914959,92.6098643 0,88.7007147 0,83.8780652 C0,79.0560457 3.90914959,75.1468961 8.73179908,75.1468961 C13.5544486,75.1468961 17.4635982,79.0560457 17.4635982,83.8780652" id="Fill-6" fill="#020303"></path>
        </g>
    </g>
</svg>