<?xml version="1.0" encoding="UTF-8"?>
<svg width="96px" height="96px" viewBox="0 0 96 96" version="1.1" xmlns="http://www.w3.org/2000/svg" xmlns:xlink="http://www.w3.org/1999/xlink">
    <title>GoolKeeper</title>
    <defs>
        <polygon id="path-1" points="0.000248000002 0.454460003 92.5300407 0.454460003 92.5300407 59.3845185 0.000248000002 59.3845185"></polygon>
        <polygon id="path-3" points="0.352284003 -0.00200193863 64.2387711 -0.00200193863 64.2387711 65.1000005 0.352284003 65.1000005"></polygon>
    </defs>
    <g id="GoolKeeper" stroke="none" stroke-width="1" fill="none" fill-rule="evenodd">
        <g id="Group-11" transform="translate(2.000000, 4.000000)">
            <g id="Group-3" transform="translate(0.000000, 0.165540)">
                <mask id="mask-2" fill="white">
                    <use xlink:href="#path-1"></use>
                </mask>
                <g id="Clip-2"></g>
                <path d="M11.4931881,44.9238983 L5.04580804,51.0098184 L5.04580804,19.0078981 L11.4931881,44.9238983 Z M90.0081287,0.454398003 L2.52240802,0.454398003 C1.12926801,0.454398003 0.000248000002,1.58403801 0.000248000002,2.97717802 L0.000248000002,56.8607584 C0.000248000002,59.0828385 2.65942802,60.2006985 4.25468803,58.6953385 L16.0284881,47.5805984 C16.6918881,46.9550184 16.9653081,46.0219184 16.7452081,45.1377983 L6.88410805,5.49995804 L85.6464287,5.49995804 L79.9790086,28.2787582 L83.7523286,34.0106583 L87.4847287,19.0078981 L87.4394687,53.6596984 L89.8735887,59.3773385 C89.9182287,59.3791985 89.9628687,59.3829185 90.0081287,59.3829185 C91.3975487,59.3829185 92.5302887,58.2557584 92.5302887,56.8607584 L92.5302887,2.97717802 C92.5302887,1.58403801 91.4012687,0.454398003 90.0081287,0.454398003 L90.0081287,0.454398003 Z" id="Fill-1" fill="#020303" mask="url(#mask-2)"></path>
            </g>
            <g id="Group-6" transform="translate(24.800000, 22.485540)">
                <mask id="mask-4" fill="white">
                    <use xlink:href="#path-3"></use>
                </mask>
                <g id="Clip-5"></g>
                <path d="M63.9153045,42.0637143 L57.0258644,25.8798542 C56.3971844,24.4054942 54.9556844,23.4413942 53.3523644,23.4252742 L44.2563443,23.3328942 C43.4416643,21.5051342 37.5522843,8.30409406 36.7010243,6.39697405 L44.3933643,6.11363405 L51.1712044,16.3634741 C52.0943844,17.7590941 53.9723644,18.1410141 55.3661244,17.2190741 C56.7611244,16.2965141 57.1436644,14.4185341 56.2217244,13.0241541 L48.5058244,1.35575401 C47.9162044,0.463574004 46.9062244,-0.0361460003 45.8695844,-0.000186000001 L35.2651043,0.391034003 C34.4572443,0.420794003 33.6624043,0.602454005 32.9221243,0.926094007 L17.8759641,7.50925406 L7.84746406,6.45339405 L5.21308404,0.546654004 C4.04314403,2.38743402 2.33628402,3.74709403 0.352284003,4.51217403 L3.03006402,10.5143941 C3.47026403,11.5014341 4.40336403,12.1790941 5.47782404,12.2919341 L20.4291242,13.8661141 L42.1675643,62.6960745 C43.0895043,64.7792745 45.5589644,65.6956345 47.6260444,64.6918545 C49.5945444,63.7358145 50.3968244,61.3426145 49.5114644,59.3406345 L38.0780443,33.5058543 L38.0947843,33.4990343 L42.8179443,31.3916542 L50.6318044,31.4710142 L56.4877044,45.2263343 C57.3612844,47.2785344 59.7327845,48.2314744 61.7831245,47.3591344 C63.8334645,46.4855544 64.7882645,44.1152943 63.9153045,42.0637143" id="Fill-4" fill="#020303" mask="url(#mask-4)"></path>
            </g>
            <path d="M46.6812264,10.6261801 C50.5500264,10.6261801 53.6866064,13.7633801 53.6866064,17.6321801 C53.6866064,21.5009802 50.5500264,24.6375602 46.6812264,24.6375602 C42.8124263,24.6375602 39.6758463,21.5009802 39.6758463,17.6321801 C39.6758463,13.7633801 42.8124263,10.6261801 46.6812264,10.6261801" id="Fill-7" fill="#020303"></path>
            <path d="M27.9522662,14.7772661 C26.7897662,12.1707861 24.2316462,10.6238861 21.5513862,10.6238861 C16.5145061,10.6238861 13.0834261,15.8362261 15.1573261,20.4849862 C16.3198261,23.0914662 18.8779461,24.6377462 21.5588262,24.6377462 C26.5957062,24.6377462 30.0267862,19.4260261 27.9522662,14.7772661" id="Fill-9" fill="#020303"></path>
        </g>
    </g>
</svg>