<?xml version="1.0" encoding="UTF-8"?>
<svg width="96px" height="96px" viewBox="0 0 96 96" version="1.1" xmlns="http://www.w3.org/2000/svg" xmlns:xlink="http://www.w3.org/1999/xlink">
    <title>MidFieilder</title>
    <defs>
        <polygon id="path-1" points="0.448860018 0.0228000009 16.4814607 0.0228000009 16.4814607 16.0547406 0.448860018 16.0547406"></polygon>
        <polygon id="path-3" points="0.253943682 0.0577079403 52.3209321 0.0577079403 52.3209321 72.6000029 0.253943682 72.6000029"></polygon>
    </defs>
    <g id="MidFieilder" stroke="none" stroke-width="1" fill="none" fill-rule="evenodd">
        <g id="Group-9" transform="translate(18.000000, 3.000000)">
            <g id="Group-3" transform="translate(27.000001, 0.577200)">
                <mask id="mask-2" fill="white">
                    <use xlink:href="#path-1"></use>
                </mask>
                <g id="Clip-2"></g>
                <path d="M16.4814607,8.03874032 C16.4814607,12.4661405 12.8928605,16.0547406 8.46546034,16.0547406 C4.03806016,16.0547406 0.448860018,12.4661405 0.448860018,8.03874032 C0.448860018,3.61134014 4.03806016,0.0227400009 8.46546034,0.0227400009 C12.8928605,0.0227400009 16.4814607,3.61134014 16.4814607,8.03874032" id="Fill-1" fill="#020303" mask="url(#mask-2)"></path>
            </g>
            <path d="M16.0320606,28.7774411 C16.0320606,33.2048413 12.4434605,36.7934415 8.01666032,36.7934415 C3.58926014,36.7934415 6.00000024e-05,33.2048413 6.00000024e-05,28.7774411 C6.00000024e-05,24.350641 3.58926014,20.7620408 8.01666032,20.7620408 C12.4434605,20.7620408 16.0320606,24.350641 16.0320606,28.7774411" id="Fill-4" fill="#020303"></path>
            <g id="Group-8" transform="translate(7.800000, 16.177201)">
                <mask id="mask-4" fill="white">
                    <use xlink:href="#path-3"></use>
                </mask>
                <g id="Clip-7"></g>
                <path d="M17.4628807,6.04188024 C17.4628807,6.04188024 17.4754807,-0.0913200036 24.271081,0.0604800024 L36.4102814,0.211680008 L38.3530815,1.66968007 L51.9562821,26.4466811 C51.9562821,26.4466811 53.4142821,29.8474812 50.499482,32.2768813 C50.499482,32.2768813 47.5840819,33.7336813 45.1546818,31.7908813 L35.4382814,14.3008806 L35.4382814,69.6850828 C35.4382814,69.6850828 34.4668814,72.6004829 30.5800812,72.6004829 C30.5800812,72.6004829 27.1792811,72.6004829 26.6938811,68.7130827 L26.6938811,36.6490815 L12.1186805,37.1344815 L16.9768807,47.8228819 C16.9768807,47.8228819 19.4062808,55.1098822 12.1186805,54.6244822 C12.1186805,54.6244822 9.68988039,53.6530821 9.20388037,52.6810821 L0.458880018,34.7050814 C0.458880018,34.7050814 -0.99852004,28.8760811 3.85968015,28.3900811 L17.4628807,27.9040811 L17.4628807,6.04188024 Z" id="Fill-6" fill="#020303" mask="url(#mask-4)"></path>
            </g>
        </g>
    </g>
</svg>