<?xml version="1.0" encoding="UTF-8"?>
<svg width="96px" height="96px" viewBox="0 0 96 96" version="1.1" xmlns="http://www.w3.org/2000/svg" xmlns:xlink="http://www.w3.org/1999/xlink">
    <title>WicketKeeper</title>
    <defs>
        <polygon id="path-1" points="0.120539993 0.414419975 25.1519385 0.414419975 25.1519385 21.5999987 0.120539993 21.5999987"></polygon>
        <polygon id="path-3" points="0.136439992 0.294599982 13.6247992 0.294599982 13.6247992 12.1271993 0.136439992 12.1271993"></polygon>
    </defs>
    <g id="WicketKeeper" stroke="none" stroke-width="1" fill="none" fill-rule="evenodd">
        <g id="Group-35" transform="translate(12.000000, 4.000000)">
            <path d="M46.1934572,14.5637391 C46.1934572,14.5637391 47.5584572,13.6535392 47.1042572,12.2879393 C47.1042572,12.2879393 46.6488572,11.3777393 46.1934572,11.3777393 L45.7380573,7.28213957 C45.7380573,7.28213957 43.4628574,0.000539999968 35.7264579,0.000539999968 C35.7264579,0.000539999968 28.4442583,0.910139946 27.0792584,6.82673959 L26.6238584,11.3777393 C26.6238584,11.3777393 24.3486585,12.2879393 25.7136585,14.1083392 C25.7136585,14.1083392 33.450658,15.4739391 36.6360578,15.4739391 L46.1934572,14.5637391 Z" id="Fill-1" fill="#020303"></path>
            <path d="M27.0790184,16.384259 C27.0790184,16.384259 36.6364178,18.2046589 45.7384173,16.384259 C45.7384173,16.384259 45.2836173,20.0250588 43.4632174,22.3002587 L42.5524175,24.5760585 C42.5524175,24.5760585 39.8218176,27.7620583 36.1810178,27.7620583 C36.1810178,27.7620583 32.5408181,28.2174583 29.8096182,23.6658586 L28.4440183,21.8460587 C28.4440183,21.8460587 27.0790184,20.0250588 27.0790184,16.384259" id="Fill-3" fill="#020303"></path>
            <path d="M46.1934572,21.3905387 C46.1934572,21.3905387 56.2056566,25.4861385 57.5712566,31.4027381 L56.6610566,47.7869372 L46.6488572,48.6971371 L46.1934572,36.8639378 L45.2832573,52.7927369 C45.2832573,52.7927369 32.995258,55.9781367 26.6238584,52.3379369 L26.6238584,36.4091378 L25.7136585,48.6971371 L15.2460591,47.7869372 L14.7912591,30.4925382 C14.7912591,30.4925382 18.4314589,23.6657386 25.7136585,21.3905387 L25.7136585,32.3129381 C25.7136585,32.3129381 26.1690584,36.4091378 29.8092582,35.4989379 L32.995258,34.133338 L36.1812578,37.3193378 L38.4564577,34.133338 C38.4564577,34.133338 44.3730574,38.2289377 46.1934572,33.223138 L46.1934572,21.3905387 Z" id="Fill-5" fill="#020303"></path>
            <path d="M44.8282173,24.1209586 L44.8282173,32.3127581 C44.8282173,32.3127581 43.4632174,35.0433579 40.2772176,32.768158 L40.7326176,30.4923582 C40.7326176,30.4923582 44.8282173,27.7617583 44.8282173,24.1209586" id="Fill-7" fill="#020303"></path>
            <path d="M27.3063584,24.1209586 L27.3063584,32.3127581 C27.3063584,32.3127581 28.6713583,35.0433579 31.8579581,32.768158 L31.4025581,30.4923582 C31.4025581,30.4923582 27.3063584,27.7617583 27.3063584,24.1209586" id="Fill-9" fill="#020303"></path>
            <polygon id="Fill-11" fill="#020303" points="48.0139771 50.517477 56.6611766 49.606677 55.2961767 56.4334766 54.3853768 59.1640765 49.834377 68.7220759 43.0075774 64.6258761 46.6489772 58.2544765 46.6489772 53.2480768"></polygon>
            <polygon id="Fill-13" fill="#020303" points="25.0311585 50.972757 16.383959 50.061957 17.7489589 56.8887566 18.6597589 59.6193564 23.2107586 69.1767559 30.0375582 65.0811561 26.3961584 58.7097565 26.3961584 53.7033568"></polygon>
            <path d="M27.9889783,55.0684167 C27.9889783,55.0684167 40.7323776,56.8888166 44.3731774,55.0684167 L44.8279773,57.7990166 L41.6425775,63.2602162 L31.1749781,63.2602162 L27.9889783,58.2544165 L27.9889783,55.0684167 Z" id="Fill-15" fill="#020303"></path>
            <g id="Group-19" transform="translate(23.999999, 65.804396)">
                <mask id="mask-2" fill="white">
                    <use xlink:href="#path-1"></use>
                </mask>
                <g id="Clip-18"></g>
                <path d="M6.94733959,0.414419975 C6.94733959,0.414419975 11.4983393,8.60621949 17.8697389,0.414419975 L25.1519385,4.9654197 C25.1519385,4.9654197 23.7863386,8.60621949 23.3315386,9.06101946 C22.8761386,9.51641943 23.3315386,14.5228191 23.3315386,14.5228191 L22.4213387,16.343219 L22.4213387,18.6184189 C22.4213387,18.6184189 20.1455388,22.2592187 17.414939,20.4388188 C17.414939,20.4388188 14.6843391,22.7146186 12.4091393,20.8942188 C12.4091393,20.8942188 9.67793942,22.7146186 7.85813953,19.9840188 C7.85813953,19.9840188 5.12693969,22.7146186 2.85173983,18.6184189 L2.39633986,16.343219 L1.48553991,13.1572192 L1.94093988,9.06101946 L0.120539993,4.9654197 L6.94733959,0.414419975 Z" id="Fill-17" fill="#020303" mask="url(#mask-2)"></path>
            </g>
            <path d="M42.6104375,23.7002986 C42.6104375,23.7002986 37.2104378,35.7002979 30.0104382,24.3002986 L29.8094382,23.6654986 C29.8094382,23.6654986 34.8734379,30.9824982 42.6104375,23.7002986 Z" id="Stroke-20" stroke="#020303" stroke-width="0.599999964"></path>
            <g id="Group-24" transform="translate(58.799996, 35.204398)">
                <mask id="mask-4" fill="white">
                    <use xlink:href="#path-3"></use>
                </mask>
                <g id="Clip-23"></g>
                <path d="M0.136439992,10.3067994 C0.136439992,10.3067994 5.59823967,9.39599944 13.3346392,12.1271993 C13.3346392,12.1271993 15.6104391,1.20479993 7.41863956,0.294599982 C6.96323958,0.294599982 1.04723994,1.20479993 0.591839965,3.93539977 L0.136439992,10.3067994 Z" id="Fill-22" fill="#020303" mask="url(#mask-4)"></path>
            </g>
            <path d="M58.2538165,48.9242971 C58.2538165,48.9242971 67.356416,49.3796971 69.1762159,50.744697 C69.1762159,50.744697 70.0870158,51.6554969 71.4520157,51.2000969 C71.4520157,51.2000969 69.1762159,57.1160966 67.356416,60.3020964 C67.356416,60.3020964 63.2602162,71.2250958 62.8048163,72.5900957 C62.8048163,72.5900957 62.8048163,75.3206955 60.0742164,73.5002956 C60.0742164,73.5002956 55.9786167,71.2250958 52.7926169,73.0448956 C52.7926169,73.0448956 49.607217,74.8652955 49.607217,72.5900957 C49.607217,72.5900957 55.0678167,61.6670963 55.9786167,58.9364965 C55.9786167,58.9364965 57.7990166,53.0204968 58.2538165,48.9242971" id="Fill-25" fill="#020303"></path>
            <path d="M13.4881792,45.5111973 C13.4881792,45.5111973 8.02697952,44.6003973 0.290579983,47.3315972 C0.290579983,47.3315972 -1.98521988,36.4091978 6.20657963,35.4989979 C6.6619796,35.4989979 12.5779793,36.4091978 13.0333792,39.1397977 L13.4881792,45.5111973 Z" id="Fill-27" fill="#020303"></path>
            <path d="M14.1707992,48.9242971 C14.1707992,48.9242971 5.0687997,49.3796971 3.24839981,50.744697 C3.24839981,50.744697 2.33819986,51.6554969 0.973199942,51.2000969 C0.973199942,51.2000969 3.24839981,57.1160966 5.0687997,60.3020964 C5.0687997,60.3020964 9.16499945,71.2250958 9.61979943,72.5900957 C9.61979943,72.5900957 9.61979943,75.3206955 12.3509993,73.5002956 C12.3509993,73.5002956 16.446599,71.2250958 19.6325988,73.0448956 C19.6325988,73.0448956 22.8179986,74.8652955 22.8179986,72.5900957 C22.8179986,72.5900957 17.357399,61.6670963 16.446599,58.9364965 C16.446599,58.9364965 14.6261991,53.0204968 14.1707992,48.9242971" id="Fill-29" fill="#020303"></path>
            <path d="M62.8047563,75.3208155 C62.8047563,75.3208155 60.9849564,77.1412154 58.7091565,74.4106156 L53.7027568,74.4106156 C53.7027568,74.4106156 51.8823569,77.1412154 50.517357,75.7762155 C50.517357,75.7762155 50.061957,82.6030151 53.7027568,82.1476151 L61.8945563,82.1476151 C61.8945563,82.1476151 64.6251561,79.8718152 62.8047563,75.3208155" id="Fill-31" fill="#020303"></path>
            <path d="M21.8453987,75.3208155 C21.8453987,75.3208155 20.0249988,77.1412154 17.7491989,74.4106156 L12.7427992,74.4106156 C12.7427992,74.4106156 10.9223993,77.1412154 9.55739943,75.7762155 C9.55739943,75.7762155 9.10259946,82.6030151 12.7427992,82.1476151 L20.9345988,82.1476151 C20.9345988,82.1476151 23.6657986,79.8718152 21.8453987,75.3208155" id="Fill-33" fill="#020303"></path>
        </g>
    </g>
</svg>